# xmcd
#
# Track frame offsets:
#	150
#	13767
#	28712
#	40067
#	50850
#	60012
#	73720
#	84160
#	97887
#	110235
#	124102
#	135975
#	144257
#	155882
#	165334
#	178027
#	189647
#	204455
# Disc length: 2878 seconds
# Revision: 1
# Processed by: cddbd v1.5PL3 Copyright (c) Steve Scherf et al.
#
# Submitted via: libkcddb 0.10
#
DISCID=f00b3c12
DTITLE=Willie Nelson - The Natural Collection
DYEAR=1996
DGENRE=Unknown
TTITLE0=You'll Always Have Someone
TTITLE1=Face Of A Fighter
TTITLE2=I'm Going To Lose A Lot Of Teardrops
TTITLE3=I Feel Sorry For Him
TTITLE4=Right From Wrong
TTITLE5=A Moment Isn't Very Long
TTITLE6=Broken Promis
TTITLE7=Home Is Where You're Happy
TTITLE8=I Can't Find The Time
TTITLE9=No Tomorrow In Sight
TTITLE10=I Hope So
TTITLE11=You Wouldn't Cross The Street To Say Goodby
TTITLE12=Is There Something On Your Mind
TTITLE13=One Step Beyond
TTITLE14=She's Not For Me
TTITLE15=Some Other Time
TTITLE16=What Can You Do To Me Now
TTITLE17=Touch Me
EXTD=
EXTT0=
EXTT1=
EXTT2=
EXTT3=
EXTT4=
EXTT5=
EXTT6=
EXTT7=
EXTT8=
EXTT9=
EXTT10=
EXTT11=
EXTT12=
EXTT13=
EXTT14=
EXTT15=
EXTT16=
EXTT17=
PLAYORDER=
